<svg xmlns="http://www.w3.org/2000/svg" width="512" height="512" viewBox="0 0 512 512" version="1.1">
	<path d="M 133.581 0.868 C 133.286 1.346, 130.400 2.036, 127.168 2.401 C 112.772 4.030, 88.171 12.631, 74.288 20.888 C 42.777 39.630, 19.023 69.149, 8.211 103 C 4.991 113.080, 2 126.275, 2 130.399 C 2 131.765, 1.550 133.160, 1 133.500 C -0.261 134.280, -0.392 377.639, 0.868 378.419 C 1.346 378.714, 2.036 381.600, 2.401 384.832 C 3.321 392.958, 7.395 407.733, 11.681 418.485 C 26.524 455.721, 56.408 485.460, 94.159 500.564 C 104.419 504.668, 119.857 508.794, 128.281 509.682 C 131.461 510.017, 134.300 510.676, 134.590 511.146 C 135.362 512.395, 376.727 512.250, 377.500 511 C 377.840 510.450, 379.460 510, 381.101 510 C 386.057 510, 398.888 507.067, 409.825 503.434 C 459.629 486.893, 496.701 445.420, 507.904 393.711 C 509.057 388.389, 510 382.663, 510 380.986 C 510 379.198, 510.621 377.699, 511.500 377.362 C 512.823 376.854, 512.991 362.341, 512.921 254.643 C 512.878 187.464, 512.614 133.065, 512.336 133.756 C 511.483 135.871, 510 134.057, 510 130.899 C 510 125.919, 507.061 113.093, 503.377 102 C 492.084 67.986, 469.195 39.720, 437.818 21.037 C 423.488 12.505, 399.471 4.058, 384.832 2.401 C 381.600 2.036, 378.714 1.346, 378.419 0.868 C 377.714 -0.271, 134.286 -0.271, 133.581 0.868 M 123 139 L 123 171 256 171 L 389 171 389 139 L 389 107 256 107 L 123 107 123 139 M 0.484 256 C 0.484 323.375, 0.604 350.938, 0.750 317.250 C 0.896 283.563, 0.896 228.438, 0.750 194.750 C 0.604 161.063, 0.484 188.625, 0.484 256 M 123 309.500 L 123 405 154.500 405 L 186 405 186 341.500 L 186 278 274 278 L 362 278 362 246 L 362 214 242.500 214 L 123 214 123 309.500" stroke="none" fill="#000000" fill-rule="evenodd"/>
</svg>